<?xml version="1.0" standalone="no"?>
<!DOCTYPE svg PUBLIC "-//W3C//DTD SVG 20010904//EN"
 "http://www.w3.org/TR/2001/REC-SVG-20010904/DTD/svg10.dtd">
<svg version="1.0" xmlns="http://www.w3.org/2000/svg"
 width="700.000000pt" height="700.000000pt" viewBox="0 0 700.000000 700.000000"
 preserveAspectRatio="xMidYMid meet">
<metadata>
Created by potrace 1.11, written by Peter Selinger 2001-2013
</metadata>
<g transform="translate(0.000000,700.000000) scale(0.100000,-0.100000)"
fill="#000000" stroke="none">
<path d="M0 5888 l0 -1113 1110 0 c611 0 1111 2 1111 5 1 3 2 503 3 1113 l1
1107 -1112 0 -1113 0 0 -1112z"/>
<path d="M2394 6988 c-4 -6 -7 -1637 -4 -2153 l0 -70 1028 2 c565 1 1065 2
1112 2 l85 1 -1 1105 c-1 608 -4 1108 -8 1112 -9 9 -2207 10 -2212 1z"/>
<path d="M4793 6990 c-18 -5 -19 -44 -19 -1112 l0 -1108 41 -1 c45 0 2140 0
2167 1 17 0 18 63 18 1110 0 611 -3 1110 -7 1111 -35 4 -2186 3 -2200 -1z"/>
<path d="M17 4612 c-15 -3 -16 -90 -16 -1113 l0 -1109 37 0 c58 -1 1953 -1
2077 0 l111 0 0 1110 c0 754 -4 1110 -11 1111 -50 2 -2185 3 -2198 1z"/>
<path d="M4820 4612 l-46 -3 0 -1109 0 -1110 25 -1 c30 0 2120 0 2168 1 l32 0
-1 1110 c0 611 -3 1110 -6 1111 -30 2 -2138 3 -2172 1z"/>
<path d="M1 1113 l0 -1113 1112 0 1112 0 0 1113 0 1112 -1112 0 -1112 0 0
-1112z"/>
<path d="M2390 2205 c-1 -22 -1 -2133 0 -2177 l0 -28 1110 0 1110 0 1 23 c0
27 0 2178 0 2192 -1 7 -366 10 -1111 10 -1106 0 -1110 0 -1110 -20z"/>
<path d="M4781 2215 c-4 -5 -7 -505 -7 -1110 l1 -1100 1112 -3 1113 -2 0 1113
0 1112 -1106 0 c-742 0 -1108 -3 -1113 -10z"/>
</g>
</svg>
