<svg width="109" height="108" viewBox="0 0 109 108" fill="none" xmlns="http://www.w3.org/2000/svg">
<circle r="53.5" transform="matrix(1 0 0 -1 54.2559 54)" fill="white" stroke="#E0E6ED"/>
<path d="M53.5957 57.5044C44.672 57.5044 37.0902 60.1482 32.1381 64.2922V72H75.0567V64.2922C70.1046 60.1482 62.5212 57.5044 53.5957 57.5044ZM93 53.5488L53.4917 35L14 53.5488L20.5831 56.6181V61.339C18.9323 61.6871 18.9274 62.5684 18.9274 63.6161C18.9274 64.235 19.1288 64.9599 19.5117 65.3938L17.2536 70.3182H25.3091L23.0707 65.3905C23.4471 64.9565 23.7557 64.3175 23.7557 63.6985C23.7557 62.6525 22.2338 61.6854 22.2338 61.3373V57.4069L30.4874 61.1842V60.8495C35.4395 56.4617 44.1404 53.6766 53.5941 53.6766C63.051 53.6766 71.7553 56.4617 76.7074 60.8495V61.1842L93 53.5488Z" fill="#004C91"/>
</svg>
