<svg width="34" height="29" viewBox="0 0 34 29" fill="none" xmlns="http://www.w3.org/2000/svg">
<path d="M14.5303 16.2987C11.7063 16.2987 9.30703 17.1562 7.7399 18.5002V21H21.3217V18.5002C19.7546 17.1562 17.3548 16.2987 14.5303 16.2987V16.2987ZM27 15.0158L14.4974 9L2 15.0158L4.08325 16.0113V17.5424C3.56087 17.6553 3.5593 17.9411 3.5593 18.2809C3.5593 18.4816 3.62303 18.7167 3.74422 18.8575L3.02961 20.4545H5.57882L4.87047 18.8564C4.98957 18.7156 5.08726 18.5084 5.08726 18.3076C5.08726 17.9684 4.60562 17.6547 4.60562 17.5418V16.2671L7.21752 17.4922V17.3836C8.78465 15.9605 11.5381 15.0573 14.5298 15.0573C17.5225 15.0573 20.277 15.9605 21.8441 17.3836V17.4922L27 15.0158V15.0158Z" fill="#004C91"/>
</svg>
