<svg width="442" height="624" viewBox="0 0 442 624" fill="none" xmlns="http://www.w3.org/2000/svg">
<g clip-path="url(#clip0)">
<path fill-rule="evenodd" clip-rule="evenodd" d="M237.099 491H98.2462C83.8727 491 72.2047 479.374 72.2047 465.043V131.957C72.2047 117.626 83.8515 106 98.2462 106H237.099C251.473 106 263.141 117.626 263.141 131.957V465.064C263.141 479.396 251.473 491 237.099 491Z" fill="#1A3F61"/>
<path fill-rule="evenodd" clip-rule="evenodd" d="M232.999 115.026H219.259C217.674 115.026 216.258 116.019 215.729 117.52L213.806 122.889C212.559 126.377 209.24 128.702 205.541 128.702H129.255C125.324 128.702 121.878 126.102 120.8 122.36L119.49 117.752C119.025 116.146 117.545 115.047 115.875 115.047H102.326C90.8272 115.047 81.5055 124.347 81.5055 135.804V461.238C81.5055 472.695 90.8272 481.995 102.326 481.995H232.999C244.497 481.995 253.819 472.695 253.819 461.238V135.783C253.84 124.326 244.519 115.026 232.999 115.026Z" fill="#FEFEFE"/>
<path fill-rule="evenodd" clip-rule="evenodd" d="M238.833 460.879H98.2464C95.3717 460.879 93.0466 458.554 93.0466 455.679V370.896C93.0466 368.022 95.3717 365.696 98.2464 365.696H238.833C241.707 365.696 244.032 368.022 244.032 370.896V455.679C244.053 458.575 241.707 460.879 238.833 460.879Z" fill="#D44454"/>
<path fill-rule="evenodd" clip-rule="evenodd" d="M238.833 476.669H98.2464C95.3717 476.669 93.0466 474.343 93.0466 471.469V392.308C93.0466 389.434 95.3717 387.109 98.2464 387.109H238.833C241.707 387.109 244.032 389.434 244.032 392.308V471.469C244.053 474.343 241.707 476.669 238.833 476.669Z" fill="#FFBB58"/>
<path fill-rule="evenodd" clip-rule="evenodd" d="M191.928 407.887C191.463 420.865 180.81 431.244 167.662 431.244C154.515 431.244 143.861 420.865 143.417 407.887H80.0258V461.513C80.0258 472.97 89.3474 482.27 100.846 482.27H234.499C245.998 482.27 255.32 472.97 255.32 461.513V407.887H191.928Z" fill="#1A3F61"/>
<path fill-rule="evenodd" clip-rule="evenodd" d="M237.966 251.321H97.3797C94.505 251.321 92.1799 248.996 92.1799 246.121V161.359C92.1799 158.484 94.505 156.159 97.3797 156.159H237.966C240.841 156.159 243.166 158.484 243.166 161.359V246.142C243.166 248.996 240.841 251.321 237.966 251.321Z" fill="#E7EBEF"/>
<path d="M237.966 251.321H97.3797C94.505 251.321 92.1799 248.996 92.1799 246.121V161.359C92.1799 158.484 94.505 156.159 97.3797 156.159H237.966C240.841 156.159 243.166 158.484 243.166 161.359V246.142C243.166 248.996 240.841 251.321 237.966 251.321Z" stroke="#3E4C5A" stroke-width="0.5" stroke-dasharray="2.49 2.49"/>
<mask id="mask0" mask-type="alpha" maskUnits="userSpaceOnUse" x="156" y="192" width="24" height="24">
<path fill-rule="evenodd" clip-rule="evenodd" d="M167.476 192C167.122 192.025 166.818 192.355 166.818 192.709V202.792H156.709C156.304 202.792 156 203.122 156 203.502V203.578C156.025 203.932 156.355 204.211 156.709 204.211H166.818V214.294C166.818 214.699 167.147 215.003 167.552 215.003H167.628C167.983 214.978 168.287 214.649 168.287 214.294V204.236H178.421C178.826 204.236 179.13 203.907 179.13 203.527V203.451C179.105 203.096 178.775 202.792 178.421 202.792H168.287V192.709C168.287 192.304 167.958 192 167.578 192H167.476Z" fill="white"/>
</mask>
<g mask="url(#mask0)">
<path fill-rule="evenodd" clip-rule="evenodd" d="M153 217.058H182.16V188H153V217.058Z" fill="#020203"/>
</g>
<path fill-rule="evenodd" clip-rule="evenodd" d="M301.217 213.706L135.302 175.871C131.898 175.102 129.774 171.719 130.568 168.335L153.495 68.1099C154.263 64.7264 157.64 62.5988 161.043 63.3678L326.959 101.202C330.362 101.971 332.486 105.355 331.693 108.738L308.766 208.964C307.998 212.373 304.62 214.475 301.217 213.706Z" fill="#004C92"/>
<path fill-rule="evenodd" clip-rule="evenodd" d="M192.287 151.443L153.546 142.625C150.296 141.882 148.275 138.652 149.017 135.422L161.683 79.9268C162.425 76.6715 165.649 74.6464 168.899 75.3898L207.64 84.2076C210.89 84.9509 212.911 88.1807 212.169 91.4105L199.503 146.906C198.761 150.161 195.537 152.186 192.287 151.443Z" fill="#F1F4F7"/>
<mask id="mask1" mask-type="alpha" maskUnits="userSpaceOnUse" x="148" y="74" width="65" height="78">
<path fill-rule="evenodd" clip-rule="evenodd" d="M162.334 77.0446L148.977 135.488C148.235 138.692 150.257 141.871 153.455 142.614L192.35 151.457C195.548 152.201 198.747 150.176 199.489 146.972L212.206 91.3479C212.948 88.1438 210.927 84.9653 207.728 84.2219L166.045 74.7377C165.814 74.6864 165.584 74.6608 165.354 74.6608C163.947 74.6608 162.667 75.6348 162.334 77.0446Z" fill="white"/>
</mask>
<g mask="url(#mask1)">
<path fill-rule="evenodd" clip-rule="evenodd" d="M205.784 132.361C205.707 132.284 205.553 132.079 205.451 131.925C201.331 126.978 199.515 120.262 201.05 113.52C201.229 112.777 201.51 111.47 201.536 111.342C203.916 100.089 197.135 89.0408 186.26 86.5544C175.538 84.1193 164.842 90.8864 161.874 101.755C161.797 101.96 161.669 102.319 161.618 102.524C160.39 106.061 157.831 108.599 154.607 110.111C145.267 114.315 137.872 122.876 135.364 133.847C131.321 151.586 141.48 169.119 158.215 173.861C162.334 178.833 168.015 182.525 174.719 184.063C191.352 187.856 208.01 176.988 211.95 159.788C214.253 149.689 211.669 139.692 205.784 132.361Z" fill="#193F61"/>
</g>
<mask id="mask2" mask-type="alpha" maskUnits="userSpaceOnUse" x="148" y="74" width="65" height="78">
<path fill-rule="evenodd" clip-rule="evenodd" d="M162.334 77.0446L148.977 135.488C148.235 138.692 150.257 141.871 153.455 142.614L192.35 151.457C195.548 152.201 198.747 150.176 199.489 146.972L212.206 91.3479C212.948 88.1438 210.927 84.9653 207.728 84.2219L166.045 74.7377C165.814 74.6864 165.584 74.6608 165.354 74.6608C163.947 74.6608 162.667 75.6348 162.334 77.0446Z" fill="white"/>
</mask>
<g mask="url(#mask2)">
<path fill-rule="evenodd" clip-rule="evenodd" d="M182.447 124.133C182.78 121.928 183.342 120.211 183.342 120.211L178.813 119.185L174.31 118.16C174.31 118.16 174.054 119.98 173.414 122.082C172.749 124.209 169.32 123.979 169.32 123.979L168.194 128.9L176.331 130.746L176.562 130.797L184.212 132.54L185.338 127.619C185.313 127.619 182.114 126.311 182.447 124.133Z" fill="#E17981"/>
</g>
<mask id="mask3" mask-type="alpha" maskUnits="userSpaceOnUse" x="148" y="74" width="65" height="78">
<path fill-rule="evenodd" clip-rule="evenodd" d="M162.334 77.0446L148.977 135.488C148.235 138.692 150.257 141.871 153.455 142.614L192.35 151.457C195.548 152.201 198.747 150.176 199.489 146.972L212.206 91.3479C212.948 88.1438 210.927 84.9653 207.728 84.2219L166.045 74.7377C165.814 74.6864 165.584 74.6608 165.354 74.6608C163.947 74.6608 162.667 75.6348 162.334 77.0446Z" fill="white"/>
</mask>
<g mask="url(#mask3)">
<path fill-rule="evenodd" clip-rule="evenodd" d="M192.401 107.24C187.795 106.189 184.596 102.165 184.11 97.4485C184.059 97.0384 183.573 96.9102 183.342 97.2691C180.86 101.319 176.254 103.549 171.649 102.524C171.623 102.524 171.623 102.524 171.597 102.524C171.495 102.908 171.367 103.293 171.29 103.677C169.499 111.572 174.156 120.518 178.302 121.467C182.447 122.415 190.533 116.391 192.35 108.471C192.452 108.061 192.503 107.676 192.58 107.292C192.503 107.24 192.452 107.24 192.401 107.24Z" fill="#EF888B"/>
</g>
<mask id="mask4" mask-type="alpha" maskUnits="userSpaceOnUse" x="148" y="74" width="65" height="78">
<path fill-rule="evenodd" clip-rule="evenodd" d="M162.334 77.0446L148.977 135.488C148.235 138.692 150.257 141.871 153.455 142.614L192.35 151.457C195.548 152.201 198.747 150.176 199.489 146.972L212.206 91.3479C212.948 88.1438 210.927 84.9653 207.728 84.2219L166.045 74.7377C165.814 74.6864 165.584 74.6608 165.354 74.6608C163.947 74.6608 162.667 75.6348 162.334 77.0446Z" fill="white"/>
</mask>
<g mask="url(#mask4)">
<path fill-rule="evenodd" clip-rule="evenodd" d="M216.889 187.062C216.889 187.062 205.758 174.63 202.892 167.401C199.668 159.301 203.788 143.973 198.44 136.18C194.525 130.464 184.648 127.465 184.648 127.465C184.648 127.465 182.012 131.899 175.871 130.618C169.781 129.105 169.32 123.979 169.32 123.979C169.32 123.979 159.136 122.389 153.097 125.85C144.883 130.566 141.94 146.151 135.518 152.073C129.786 157.353 114.356 163.736 114.356 163.736C114.356 163.736 113.716 164.787 114.612 166.35C115.508 167.914 116.454 168.093 116.454 168.093C116.454 168.093 133.855 166.555 142.938 159.352C152.022 152.149 154.453 143.204 154.453 143.204C154.453 143.204 153.123 158.404 151.383 166.632C151.229 167.529 149.566 173.015 148.721 174.425C148.158 175.347 156.628 179.961 164.177 181.73C171.725 183.396 181.372 182.909 181.27 181.833C181.116 180.218 182.012 174.527 182.268 173.656C184.289 165.504 189.689 151.227 189.689 151.227C189.689 151.227 189.791 161.608 194.832 172.015C199.873 182.422 213.128 190.086 213.128 190.086C213.128 190.086 214.049 190.343 215.558 189.317C217.017 188.292 216.889 187.062 216.889 187.062Z" fill="#D44454"/>
</g>
<path fill-rule="evenodd" clip-rule="evenodd" d="M328.944 579.133L326.078 610.072C326.078 610.072 288.719 610.662 287.516 610.072C286.313 609.483 286.518 601.716 292.736 600.434C298.954 599.152 300.08 602.664 308.473 598.512C313.36 596.102 318.376 577.8 318.376 577.8L328.944 579.133Z" fill="#D44454"/>
<path fill-rule="evenodd" clip-rule="evenodd" d="M329.149 166.005C329.149 166.005 328.841 154.906 328.279 148.164C327.716 141.423 327.69 137.68 327.05 134.348C326.436 131.016 325.873 133.682 325.873 133.682L324.543 140.039C324.312 138.834 321.984 135.45 321.318 135.809C320.525 136.245 322.726 141.09 322.649 144.166C322.572 148.036 322.214 149.959 321.37 150.215C320.5 150.471 317.685 145.627 316.585 145.524C315.484 145.396 319.271 155.675 320.704 157.29C322.137 158.905 323.468 169.85 323.468 169.85L329.149 166.005Z" fill="#EF888B"/>
<path fill-rule="evenodd" clip-rule="evenodd" d="M370.755 280.739C369.066 264.667 349.107 232.907 343.504 215.964C339.435 203.686 335.673 183 330.249 159.52C329.532 156.444 321.242 162.16 321.344 163.698C322.777 185.255 324.517 202.558 327.101 220.116C329.583 237.06 336.339 278.893 346.216 296.016" fill="#C6394E"/>
<path fill-rule="evenodd" clip-rule="evenodd" d="M364.486 213.221C364.486 213.221 352.306 227.781 351.82 228.268C351.333 228.755 352.306 231.626 352.306 231.626C352.306 231.626 347.086 251.312 357.628 251.03C368.171 250.722 372.035 218.732 372.035 218.732L364.486 213.221Z" fill="#EF888B"/>
<path d="M368.938 623.965H430.197" stroke="#193F61" stroke-width="0.8211"/>
<path fill-rule="evenodd" clip-rule="evenodd" d="M364.435 212.426C364.64 209.427 377.946 203.865 389.767 215.682C401.589 227.499 392.147 244.622 400.566 253.491C408.984 262.36 441.405 262.513 441.405 291.069C441.405 314.343 421.548 314.779 415.919 326.622C408.677 341.822 421.881 357.74 406.093 366.763C390.254 375.837 373.135 361.918 367.25 326.16C364.256 308.012 354.839 259.386 356.016 248.62C357.193 237.829 358.601 238.008 362.439 235.573C367.659 233.497 365.203 228.396 362.644 228.78C362.388 227.806 368.222 220.937 368.043 217.989C367.864 215.015 364.23 215.425 364.435 212.426Z" fill="#1A3F61"/>
<path fill-rule="evenodd" clip-rule="evenodd" d="M334.471 402.726C330.325 417.081 316.124 572.443 316.124 576.852C316.124 577.903 330.453 579.877 331.068 578.774C337.337 565.727 349.159 521.331 353.509 489.828C357.833 458.325 334.471 402.726 334.471 402.726Z" fill="#143853"/>
<path fill-rule="evenodd" clip-rule="evenodd" d="M399.082 576.724L408.703 608.893C408.703 608.893 393.324 622.786 391.149 623.965C388.974 625.145 374.773 623.965 374.773 623.965C374.773 623.965 371.804 615.968 380.684 614.276C393.759 611.764 390.586 593.462 390.586 593.462L387.823 579.569L399.082 576.724Z" fill="#D44454"/>
<path fill-rule="evenodd" clip-rule="evenodd" d="M328.278 355.536C332.347 396.421 343.197 461.657 352.485 487.879C363.514 518.998 383.242 577.621 385.904 579.543C387.669 580.056 399.21 577.8 400.387 575.698C402.024 572.289 390.919 492.416 381.042 466.809C379.276 446.123 394.476 386.654 365.484 346.898C344.629 356.92 328.278 355.536 328.278 355.536Z" fill="#1A3F61"/>
<path fill-rule="evenodd" clip-rule="evenodd" d="M260.75 213.119C260.75 213.119 258.217 210.504 252.869 207.531C247.521 204.557 247.777 204.096 246.574 202.301C245.704 201.045 245.679 201.045 245.679 201.045L257.168 203.634C257.168 203.634 254.763 197.918 255.07 196.97C255.377 196.021 262.388 202.968 263.181 204.737C263.975 206.531 266.968 211.427 266.968 211.427L260.75 213.119Z" fill="#EF888B"/>
<path fill-rule="evenodd" clip-rule="evenodd" d="M291.431 256.849C282.296 247.672 274.722 237.957 259.522 215.246C257.757 212.606 266.533 208.889 267.634 209.94C283.038 224.833 290.51 234.497 306.733 244.468C321.011 253.26 364.716 259.438 369.86 277.176C374.977 294.888 369.68 307.705 367.889 319.547C366.072 331.672 365.817 347.308 365.817 347.308C365.817 347.308 356.349 353.255 346.625 354.972C336.902 356.689 328.278 355.536 328.278 355.536C328.278 355.536 325.668 320.649 328.816 306.602C331.963 292.555 332.193 292.889 334.189 287.121C320.832 277.97 303.662 269.127 291.431 256.849Z" fill="#D44454"/>
<path fill-rule="evenodd" clip-rule="evenodd" d="M345.269 292.581C341.712 291.3 334.189 287.121 334.189 287.121C333.243 290.018 332.066 293.837 330.889 298.195C334.292 298.964 341.636 295.785 345.269 292.581Z" fill="#C6394E"/>
<path fill-rule="evenodd" clip-rule="evenodd" d="M254.737 204.249C257.117 204.48 257.168 203.66 257.168 203.66L249.082 201.84C249.082 201.814 252.358 204.019 254.737 204.249Z" fill="#E17981"/>
<path fill-rule="evenodd" clip-rule="evenodd" d="M264.128 208.786C263.975 210.068 263.668 210.658 263.668 210.658C264.512 210.299 265.331 210.017 266.047 209.863C265.203 208.453 264 206.403 263.386 205.147L263.361 205.121C263.386 205.147 264.282 207.505 264.128 208.786Z" fill="#E17981"/>
<path fill-rule="evenodd" clip-rule="evenodd" d="M323.928 160.878C322.496 158.469 320.704 157.264 320.704 157.264C321.267 157.905 321.805 159.981 322.265 162.237C322.726 161.827 323.289 161.34 323.928 160.878Z" fill="#E17981"/>
<path fill-rule="evenodd" clip-rule="evenodd" d="M325.924 144.73C325.95 144.037 325.796 139.167 325.182 136.963L325.566 135.117L324.543 140.039C324.543 140.039 325.438 143.653 325.387 145.114C325.361 146.549 325.899 145.422 325.924 144.73Z" fill="#E17981"/>
<path fill-rule="evenodd" clip-rule="evenodd" d="M184.983 100.897C184.983 100.897 184.292 99.359 184.087 97.4365C184.036 97.0264 183.55 96.8982 183.32 97.2571C180.838 101.307 176.232 103.537 171.626 102.512H171.6C171.575 102.614 171.549 102.717 171.524 102.794C171.6 102.794 179.277 104.306 184.983 100.897Z" fill="#E17981"/>
<path fill-rule="evenodd" clip-rule="evenodd" d="M178.305 121.429C176.948 121.122 175.515 119.942 174.287 118.225C174.287 118.302 174.236 118.558 174.159 118.968C174.159 118.968 175.771 123.172 182.475 123.787C182.757 122.044 183.192 120.634 183.294 120.301C181.452 121.301 179.661 121.737 178.305 121.429Z" fill="#D77480"/>
<path fill-rule="evenodd" clip-rule="evenodd" d="M368.12 318.214C366.891 324.93 363.079 344.847 360.187 350.332C363.591 348.692 365.842 347.282 365.842 347.282C365.842 347.282 366.073 331.671 367.915 319.547C367.966 319.111 368.043 318.675 368.12 318.214Z" fill="#C6394E"/>
<path fill-rule="evenodd" clip-rule="evenodd" d="M368.452 316.292C368.478 316.189 368.478 316.087 368.504 316.01V315.984C368.504 315.984 368.504 316.087 368.452 316.292Z" fill="#C6394E"/>
<path fill-rule="evenodd" clip-rule="evenodd" d="M365.817 347.308C365.766 347.333 363.539 348.718 360.187 350.333C360.187 350.333 374.67 359.817 381.451 387.09C379.097 373.12 374.466 359.33 365.817 347.308Z" fill="#143853"/>
<path fill-rule="evenodd" clip-rule="evenodd" d="M381.17 455.966C381.17 455.966 381.17 456.094 381.144 456.299C381.17 456.197 381.17 456.094 381.17 455.966Z" fill="#143853"/>
<path fill-rule="evenodd" clip-rule="evenodd" d="M399.056 576.724C396.446 578.057 390.893 579.261 387.823 579.543L388.437 582.645C394.629 581.671 399.363 577.775 399.363 577.775L399.056 576.724Z" fill="#C6394E"/>
<path fill-rule="evenodd" clip-rule="evenodd" d="M318.401 577.775C318.401 577.775 318.35 577.928 318.299 578.133C318.299 578.133 322.649 581.338 328.739 581.568L328.969 579.108H328.918C326.078 579.082 321.242 578.441 318.401 577.775Z" fill="#C6394E"/>
</g>
<defs>
<clipPath id="clip0">
<rect width="441.426" height="624" fill="white"/>
</clipPath>
</defs>
</svg>
