<svg width="466" height="400" viewBox="0 0 466 400" fill="none" xmlns="http://www.w3.org/2000/svg">
<path d="M465.212 191.38C465.212 272.473 353.266 319.792 322.042 319.792C289.035 319.792 178.872 272.473 178.872 191.38C178.872 110.287 242.979 0 322.042 0C401.105 0 465.212 110.262 465.212 191.38Z" fill="#004C91"/>
<path d="M304.833 64.8469C304.833 64.8469 334.299 112.215 399.247 109.046V209.056L324.84 248.006L244.836 206.952V115.385C244.836 115.385 295.349 103.796 304.833 64.8469Z" fill="#C6EBDD"/>
<path d="M215.967 336.171L294.432 297.311V253.273L322.05 266.819L345.796 253.273V299.011L429.785 335.294C443.002 341.005 451.682 354.817 451.682 370.143V399.201H192.122V371.789C192.122 355.64 201.739 341.27 215.967 336.171Z" fill="#D34454"/>
<g clip-path="url(#clip0)">
<path d="M33.2422 347.751L114.942 318.557L114.076 290.231L130.95 296.012C153.304 304.466 164.264 298.902 179.479 293.7L190.44 288.858L190.656 320.581L275.528 347.028C291.176 355.772 294.421 353.243 300.334 375.499L306.463 399.273H0L6.27348 376.872C12.6191 360.18 11.1769 357.578 33.2422 347.751Z" fill="#004C91"/>
<path d="M148.617 58.2008C142.127 58.2008 135.637 59.2125 129.147 61.2358C114.87 65.2824 95.8328 71.3523 78.5267 67.3057C77.2287 77.9281 79.392 88.5505 85.0165 97.1495C75.9307 112.324 71.1715 130.534 71.1715 148.816V195.93H226.062V148.816C226.062 98.7393 191.449 58.2008 148.617 58.2008Z" fill="#2BC093"/>
<path d="M148.616 58.2008C142.127 58.2008 135.637 59.2125 129.147 61.2358C114.869 65.2824 95.8326 71.3523 78.5265 67.3057C77.6612 74.8931 78.5265 82.4805 81.1224 89.5621C97.5633 92.0912 115.302 86.0213 129.147 82.4805C178.47 67.8115 226.061 110.807 226.061 170.061V148.816C226.061 98.7393 191.449 58.2008 148.616 58.2008Z" fill="#2BC093"/>
<path d="M234.282 197.231C233.416 190.294 229.09 184.874 223.465 183.429L218.706 181.984C211.784 179.527 207.025 172.59 207.025 164.208V145.42C207.025 138.049 202.265 131.618 196.208 129.595C181.065 136.026 164.625 139.494 148.616 138.989C132.608 139.494 116.6 136.026 101.457 129.595C94.9672 131.04 90.6407 137.977 90.6407 145.42V168.11C90.6407 175.986 85.0162 182.418 78.0937 182.418C70.7386 181.912 64.6815 187.837 63.3835 195.714C61.6529 205.613 68.5753 214.935 77.2284 214.935H78.0937C83.2856 254.462 113.571 284.089 148.616 284.089C184.094 284.089 213.947 254.462 219.139 214.935H220.004C228.225 214.501 234.714 206.625 234.282 197.231Z" fill="#FFDFB5"/>
</g>
<path d="M235 199.576C234.11 192.44 229.662 186.865 223.879 185.379L218.986 183.892C211.869 181.365 206.976 174.229 206.976 165.606V146.279C206.976 138.697 202.083 132.081 195.856 130C180.287 136.616 163.384 140.184 146.926 139.663C130.467 140.184 114.009 136.616 98.4403 130C91.768 131.487 87.3198 138.623 87.3198 146.279V169.62C87.3198 177.722 81.5371 184.338 74.42 184.338C66.8581 183.818 60.6307 189.913 59.2962 198.09C57.5169 208.273 64.634 217.863 73.5304 217.863H74.42C79.7579 258.523 110.895 289 146.926 289C183.401 289 214.093 258.523 219.431 217.863H220.321C228.772 217.342 235.444 209.24 235 199.576Z" fill="#F3CCD2"/>
<defs>
<clipPath id="clip0">
<rect y="58.2008" width="306.391" height="341" fill="white"/>
</clipPath>
</defs>
</svg>
