<svg width="108" height="108" viewBox="0 0 108 108" fill="none" xmlns="http://www.w3.org/2000/svg">
<circle r="53.5" transform="matrix(1 0 0 -1 54 54)" fill="white" stroke="#E0E6ED"/>
<path d="M45.299 68.4593V70.15C45.299 73.6111 46.6738 76.9304 49.121 79.3777C51.5683 81.8251 54.8874 83.2 58.3483 83.2C61.8092 83.2 65.1284 81.8251 67.5756 79.3777C70.0228 76.9304 71.3977 73.6111 71.3977 70.15V65.307C69.462 64.6229 67.8306 63.2764 66.7917 61.5057C65.7527 59.7349 65.3733 57.6538 65.7203 55.6303C66.0673 53.6068 67.1185 51.7711 68.6881 50.4478C70.2577 49.1244 72.2446 48.3986 74.2975 48.3986C76.3505 48.3986 78.3373 49.1244 79.9069 50.4478C81.4765 51.7711 82.5277 53.6068 82.8747 55.6303C83.2218 57.6538 82.8423 59.7349 81.8034 61.5057C80.7645 63.2764 79.133 64.6229 77.1974 65.307V70.15C77.1974 75.1493 75.2115 79.9439 71.6766 83.479C68.1417 87.014 63.3474 89 58.3483 89C53.3492 89 48.5549 87.014 45.02 83.479C41.4851 79.9439 39.4993 75.1493 39.4993 70.15V68.4593C35.4451 67.7728 31.7648 65.673 29.1108 62.5321C26.4568 59.3913 25.0005 55.4121 25 51.3V36.8C25 35.2617 25.611 33.7865 26.6987 32.6988C27.7864 31.6111 29.2615 31 30.7997 31H33.6996C34.4687 31 35.2062 31.3055 35.7501 31.8494C36.2939 32.3932 36.5994 33.1309 36.5994 33.9C36.5994 34.6691 36.2939 35.4068 35.7501 35.9506C35.2062 36.4945 34.4687 36.8 33.6996 36.8H30.7997V51.3C30.7997 54.3765 32.0218 57.327 34.1971 59.5024C36.3724 61.6779 39.3228 62.9 42.3991 62.9C45.4755 62.9 48.4258 61.6779 50.6012 59.5024C52.7765 57.327 53.9985 54.3765 53.9985 51.3V36.8H51.0987C50.3296 36.8 49.592 36.4945 49.0482 35.9506C48.5044 35.4068 48.1988 34.6691 48.1988 33.9C48.1988 33.1309 48.5044 32.3932 49.0482 31.8494C49.592 31.3055 50.3296 31 51.0987 31H53.9985C55.5367 31 57.0119 31.6111 58.0996 32.6988C59.1872 33.7865 59.7982 35.2617 59.7982 36.8V51.3C59.7977 55.4121 58.3414 59.3913 55.6874 62.5321C53.0334 65.673 49.3532 67.7728 45.299 68.4593ZM74.2975 60C75.0666 60 75.8042 59.6945 76.348 59.1506C76.8919 58.6068 77.1974 57.8691 77.1974 57.1C77.1974 56.3309 76.8919 55.5932 76.348 55.0494C75.8042 54.5055 75.0666 54.2 74.2975 54.2C73.5284 54.2 72.7908 54.5055 72.247 55.0494C71.7032 55.5932 71.3977 56.3309 71.3977 57.1C71.3977 57.8691 71.7032 58.6068 72.247 59.1506C72.7908 59.6945 73.5284 60 74.2975 60Z" fill="#004C91"/>
</svg>
