<svg width="34" height="29" viewBox="0 0 34 29" fill="none" xmlns="http://www.w3.org/2000/svg">
<g clip-path="url(#clip0)">
<path d="M10.6996 18.2087V18.85C10.6996 20.1628 11.2211 21.4219 12.1494 22.3502C13.0776 23.2785 14.3366 23.8 15.6494 23.8C16.9621 23.8 18.2211 23.2785 19.1494 22.3502C20.0776 21.4219 20.5991 20.1628 20.5991 18.85V17.013C19.8649 16.7535 19.2461 16.2428 18.852 15.5711C18.4579 14.8994 18.314 14.1101 18.4456 13.3425C18.5773 12.575 18.976 11.8787 19.5714 11.3767C20.1667 10.8748 20.9203 10.5995 21.6991 10.5995C22.4778 10.5995 23.2314 10.8748 23.8268 11.3767C24.4221 11.8787 24.8209 12.575 24.9525 13.3425C25.0841 14.1101 24.9402 14.8994 24.5461 15.5711C24.152 16.2428 23.5332 16.7535 22.799 17.013V18.85C22.799 20.7463 22.0457 22.5649 20.7049 23.9058C19.3641 25.2467 17.5456 26 15.6494 26C13.7532 26 11.9346 25.2467 10.5938 23.9058C9.25299 22.5649 8.49972 20.7463 8.49972 18.85V18.2087C6.96192 17.9483 5.56597 17.1518 4.55928 15.9605C3.5526 14.7691 3.0002 13.2598 3 11.7V6.2C3 5.61652 3.23177 5.05694 3.64433 4.64436C4.05689 4.23178 4.61644 4 5.19989 4H6.29983C6.59156 4 6.87133 4.11589 7.07761 4.32218C7.28389 4.52847 7.39978 4.80826 7.39978 5.1C7.39978 5.39174 7.28389 5.67153 7.07761 5.87782C6.87133 6.08411 6.59156 6.2 6.29983 6.2H5.19989V11.7C5.19989 12.867 5.66344 13.9861 6.48855 14.8113C7.31367 15.6364 8.43277 16.1 9.59967 16.1C10.7666 16.1 11.8857 15.6364 12.7108 14.8113C13.5359 13.9861 13.9994 12.867 13.9994 11.7V6.2H12.8995C12.6078 6.2 12.328 6.08411 12.1217 5.87782C11.9154 5.67153 11.7996 5.39174 11.7996 5.1C11.7996 4.80826 11.9154 4.52847 12.1217 4.32218C12.328 4.11589 12.6078 4 12.8995 4H13.9994C14.5829 4 15.1424 4.23178 15.555 4.64436C15.9676 5.05694 16.1993 5.61652 16.1993 6.2V11.7C16.1991 13.2598 15.6467 14.7691 14.6401 15.9605C13.6334 17.1518 12.2374 17.9483 10.6996 18.2087ZM21.6991 15C21.9908 15 22.2706 14.8841 22.4768 14.6778C22.6831 14.4715 22.799 14.1917 22.799 13.9C22.799 13.6083 22.6831 13.3285 22.4768 13.1222C22.2706 12.9159 21.9908 12.8 21.6991 12.8C21.4073 12.8 21.1276 12.9159 20.9213 13.1222C20.715 13.3285 20.5991 13.6083 20.5991 13.9C20.5991 14.1917 20.715 14.4715 20.9213 14.6778C21.1276 14.8841 21.4073 15 21.6991 15Z" fill="#004C91"/>
</g>
<defs>
<clipPath id="clip0">
<rect width="23.5714" height="22" fill="white" transform="matrix(-1 0 0 1 26.5715 4)"/>
</clipPath>
</defs>
</svg>
