<svg width="190" height="586" viewBox="0 0 190 586" fill="none" xmlns="http://www.w3.org/2000/svg">
<path d="M138.705 529.817L142.212 567.634C142.212 567.634 187.874 568.364 189.299 567.634C190.76 566.904 190.505 557.413 182.906 555.844C175.308 554.274 173.92 558.545 163.691 553.507C157.737 550.551 151.6 528.174 151.6 528.174L138.705 529.817Z" fill="#192234"/>
<path d="M53.0052 526.861L41.2425 566.211C41.2425 566.211 60.0555 583.185 62.6857 584.645C65.3524 586.105 82.6677 584.645 82.6677 584.645C82.6677 584.645 86.2841 574.862 75.4347 572.781C59.471 569.715 63.3432 547.339 63.3432 547.339L66.704 530.328L53.0052 526.861Z" fill="#192234"/>
<path d="M95.4535 77.9828C95.4535 77.9828 110.577 96.0518 111.198 96.6723C111.819 97.2929 110.577 100.834 110.577 100.834C110.577 100.834 117.079 125.291 103.965 124.926C90.8507 124.561 86.1018 84.8454 86.1018 84.8454L95.4535 77.9828Z" fill="#AC7C50"/>
<path d="M141.993 212.46C141.993 212.46 161.317 191.288 161.609 187.419C161.902 183.549 155.363 176.431 154.194 176.796C153.025 177.161 138.413 191.324 138.413 191.324L141.993 212.46Z" fill="#B6BDCB"/>
<path d="M95.5264 76.9972C95.2706 73.2739 78.759 66.3749 64.0739 81.0491C49.3888 95.7233 61.1149 117.005 50.6673 127.992C40.2197 138.979 -7.62939e-06 139.198 -7.62939e-06 174.643C-7.62939e-06 203.553 24.6213 204.101 31.5986 218.775C40.585 237.647 24.1829 257.432 43.7631 268.638C63.4163 279.881 84.6404 262.615 91.9829 218.227C95.709 195.705 107.362 135.329 105.901 121.932C104.44 108.536 102.686 108.755 97.9374 105.725C91.4715 103.17 94.5035 96.8184 97.6816 97.2929C97.9739 96.0883 90.7409 87.5466 90.9966 83.8963C91.2889 80.2095 95.7821 80.7205 95.5264 76.9972Z" fill="#192234"/>
<path d="M94.1748 246.554C94.1748 246.554 93.5172 227.682 91.2523 212.606C89.024 197.895 82.4486 181.98 88.8048 160.005C95.1611 137.994 116.714 135.804 126.504 122.845C131.764 115.873 157.299 71.4487 158.797 34.5442C158.906 31.77 168.331 30.0543 170.048 31.4049C173.409 34.5077 180.824 95.9058 130.888 167.999C130.888 167.999 148.495 193.077 140.385 257.286C118.029 258.709 94.1748 246.554 94.1748 246.554Z" fill="#D4D9E4"/>
<path d="M132.714 315.909C137.865 333.723 155.472 526.641 155.472 532.153C155.472 533.467 137.719 535.913 136.951 534.526C129.171 518.319 114.485 463.199 109.115 424.068C103.746 384.937 132.714 315.909 132.714 315.909Z" fill="#192234"/>
<path d="M140.386 257.286C135.344 308.062 121.865 389.062 110.321 421.622C96.6224 460.243 72.1472 533.066 68.8595 535.439C66.6677 536.059 52.3478 533.249 50.8866 530.657C48.8775 526.423 62.6494 427.244 74.887 395.45C77.0788 369.788 58.2292 295.943 94.2114 246.554C120.111 259.001 140.386 257.286 140.386 257.286Z" fill="#4B5466"/>
<path d="M168.331 30.9303C168.331 30.9303 168.769 26.1484 167.856 20.7825C167.052 16.0736 164.97 10.7077 164.458 10.4886C163.399 10.0506 164.02 13.2629 162.961 13.0439C162.486 12.9343 161.134 9.06503 159.49 6.07178C157.554 2.53099 155.289 -0.206739 154.815 0.0122794C153.974 0.450316 155.691 3.11503 155.691 3.11503C155.691 3.11503 153.755 0.413802 153.098 1.07086C152.44 1.72791 156.933 13.0439 156.933 13.0439C156.933 13.0439 149.956 2.8595 149.079 3.73558C148.203 4.61165 154.997 16.7672 154.157 17.7892C153.317 18.8113 149.664 13.6644 148.824 14.5405C148.568 14.796 150.394 20.6 153.061 25.4184C155.436 29.7257 158.65 32.9745 158.76 34.4711L168.331 30.9303Z" fill="#AC7C50"/>
<rect x="164.423" y="141.282" width="19.4872" height="32.8846" rx="2" fill="#4B5466"/>
<path d="M155.655 178.147C155.655 178.147 157.81 167.597 161.646 163.728C165.445 159.859 169.682 159.53 169.865 160.26C170.048 160.954 164.495 169.058 164.495 169.058V172.233H184.44C184.44 172.233 173.701 179.68 170.267 181.505C166.833 183.33 162.084 185.228 162.084 185.228L155.655 178.147Z" fill="#AC7C50"/>
<path d="M184.404 154.639C184.404 154.639 177.39 157.267 177.719 158.691C178.084 160.114 181.262 159.056 181.262 159.056C181.262 159.056 177.354 160.553 177.682 161.502C178.011 162.414 181.701 162.451 181.701 162.451C181.701 162.451 179.838 163.144 179.984 163.911C180.13 164.677 184.404 165.188 184.404 165.188V154.639Z" fill="#AC7C50"/>
<rect x="164.423" y="170.513" width="19.4872" height="6.08974" rx="2" fill="#4B5466"/>
</svg>
