<svg width="118" height="106" viewBox="0 0 118 106" fill="none" xmlns="http://www.w3.org/2000/svg">
<path d="M22.5824 102.302C19.8293 102.809 17.3009 103.03 15.1669 103.1C20.6494 99.2766 23.7625 94.8627 25.2457 90.807C26.2204 88.1419 26.4907 85.6261 26.2441 83.5637C26.016 81.6559 25.2645 79.6153 23.6331 78.6639C9.96953 70.6184 2 58.5576 2 45.2837C2 33.5669 8.43039 22.7943 19.2553 14.8785C30.0806 6.96226 45.2005 2 62.1806 2C96.1393 2 116.037 21.671 116 45.2407V45.2439C116 57.1492 110.979 67.8446 101.796 75.5961C92.5963 83.3613 79.1166 88.2493 62.1408 88.2493C59.3111 88.2493 56.6371 87.7014 53.8147 87.1232C52.6149 86.8773 51.3883 86.626 50.1115 86.409L48.9392 86.2097L48.2042 87.1444C40.5372 96.8938 30.6386 100.817 22.5824 102.302Z" fill="#004C92" stroke="white" stroke-width="4"/>
</svg>
