<svg width="126" height="126" viewBox="0 0 126 126" fill="none" xmlns="http://www.w3.org/2000/svg">
<path d="M84.4999 41.5001L61.3999 72.3001L60.6954 73.2394L61.1722 74.3123L80.0407 116.774L80.0419 116.777C80.396 117.571 80.8436 118.305 81.4173 118.862C81.9932 119.422 82.8511 119.938 83.9242 119.87C85.0024 119.801 85.7886 119.174 86.2867 118.535C86.7797 117.902 87.1191 117.11 87.3563 116.275C87.3566 116.274 87.3569 116.273 87.3573 116.271L115.99 16.0739L115.99 16.0738C116.484 14.344 116.388 12.3646 114.979 11.0306C113.573 9.70081 111.585 9.69812 109.844 10.2772L109.843 10.2775L9.63643 43.678L9.6364 43.678C8.8093 43.9537 8.03462 44.3167 7.42631 44.8099C6.82866 45.2945 6.16392 46.1051 6.15773 47.2385C6.15151 48.3755 6.81098 49.1918 7.40503 49.6781C8.00802 50.1718 8.77421 50.5313 9.58383 50.8012C9.58385 50.8012 9.58387 50.8012 9.5839 50.8012L51.8673 64.8975L52.8615 65.2289L53.6999 64.6001L84.4999 41.5001Z" fill="#004C92" stroke="white" stroke-width="4"/>
</svg>
