<svg width="108" height="108" viewBox="0 0 108 108" fill="none" xmlns="http://www.w3.org/2000/svg">
<circle r="53.5" transform="matrix(1 0 0 -1 54 54)" fill="white" stroke="#E0E6ED"/>
<g clip-path="url(#clip0)">
<path d="M41.7887 54.9C38.1847 55.0112 35.237 56.435 32.9455 59.1714H28.4739C26.6496 59.1714 25.1146 58.7209 23.8687 57.8199C22.6229 56.9189 22 55.6008 22 53.8655C22 46.0123 23.3793 42.0857 26.1379 42.0857C26.2714 42.0857 26.7553 42.3193 27.5896 42.7865C28.4238 43.2537 29.5084 43.7264 30.8432 44.2047C32.178 44.6831 33.5017 44.9222 34.8143 44.9222C36.3048 44.9222 37.7843 44.6664 39.2526 44.1547C39.1413 44.9778 39.0857 45.712 39.0857 46.3571C39.0857 49.4495 39.9867 52.2971 41.7887 54.9ZM77.5286 76.157C77.5286 78.8267 76.7166 80.9346 75.0925 82.4807C73.4685 84.0269 71.3105 84.8 68.6186 84.8H39.4528C36.7609 84.8 34.6029 84.0269 32.9789 82.4807C31.3549 80.9346 30.5429 78.8267 30.5429 76.157C30.5429 74.9779 30.5818 73.8267 30.6597 72.7032C30.7375 71.5797 30.8932 70.3672 31.1268 69.0658C31.3604 67.7643 31.6552 66.5574 32.0112 65.4451C32.3671 64.3327 32.8454 63.2482 33.4461 62.1915C34.0468 61.1347 34.7364 60.2337 35.5151 59.4884C36.2937 58.7432 37.2448 58.1481 38.3682 57.7031C39.4917 57.2582 40.732 57.0357 42.0891 57.0357C42.3115 57.0357 42.7898 57.2749 43.524 57.7532C44.2581 58.2315 45.0702 58.7654 45.96 59.355C46.8499 59.9445 48.0401 60.4784 49.5307 60.9568C51.0212 61.4351 52.5229 61.6742 54.0357 61.6742C55.5485 61.6742 57.0502 61.4351 58.5407 60.9568C60.0313 60.4784 61.2215 59.9445 62.1114 59.355C63.0013 58.7654 63.8133 58.2315 64.5474 57.7532C65.2816 57.2749 65.7599 57.0357 65.9824 57.0357C67.3394 57.0357 68.5797 57.2582 69.7032 57.7031C70.8267 58.1481 71.7777 58.7432 72.5564 59.4884C73.335 60.2337 74.0247 61.1347 74.6253 62.1915C75.226 63.2482 75.7043 64.3327 76.0603 65.4451C76.4162 66.5574 76.711 67.7643 76.9446 69.0658C77.1782 70.3672 77.3339 71.5797 77.4118 72.7032C77.4896 73.8267 77.5286 74.9779 77.5286 76.157ZM43.3571 33.5429C43.3571 35.901 42.5229 37.9144 40.8544 39.5829C39.1858 41.2515 37.1725 42.0857 34.8143 42.0857C32.4561 42.0857 30.4427 41.2515 28.7742 39.5829C27.1057 37.9144 26.2714 35.901 26.2714 33.5429C26.2714 31.1847 27.1057 29.1713 28.7742 27.5028C30.4427 25.8343 32.4561 25 34.8143 25C37.1725 25 39.1858 25.8343 40.8544 27.5028C42.5229 29.1713 43.3571 31.1847 43.3571 33.5429ZM66.85 46.3571C66.85 49.8944 65.5986 52.9145 63.0958 55.4172C60.593 57.92 57.573 59.1714 54.0357 59.1714C50.4984 59.1714 47.4784 57.92 44.9756 55.4172C42.4728 52.9145 41.2214 49.8944 41.2214 46.3571C41.2214 42.8199 42.4728 39.7998 44.9756 37.297C47.4784 34.7943 50.4984 33.5429 54.0357 33.5429C57.573 33.5429 60.593 34.7943 63.0958 37.297C65.5986 39.7998 66.85 42.8199 66.85 46.3571ZM86.0714 53.8655C86.0714 55.6008 85.4485 56.9189 84.2027 57.8199C82.9568 58.7209 81.4218 59.1714 79.5975 59.1714H75.1259C72.8344 56.435 69.8867 55.0112 66.2827 54.9C68.0847 52.2971 68.9857 49.4495 68.9857 46.3571C68.9857 45.712 68.9301 44.9778 68.8189 44.1547C70.2872 44.6664 71.7666 44.9222 73.2571 44.9222C74.5697 44.9222 75.8934 44.6831 77.2282 44.2047C78.5631 43.7264 79.6476 43.2537 80.4819 42.7865C81.3161 42.3193 81.8 42.0857 81.9335 42.0857C84.6921 42.0857 86.0714 46.0123 86.0714 53.8655ZM81.8 33.5429C81.8 35.901 80.9657 37.9144 79.2972 39.5829C77.6287 41.2515 75.6153 42.0857 73.2571 42.0857C70.899 42.0857 68.8856 41.2515 67.2171 39.5829C65.5485 37.9144 64.7143 35.901 64.7143 33.5429C64.7143 31.1847 65.5485 29.1713 67.2171 27.5028C68.8856 25.8343 70.899 25 73.2571 25C75.6153 25 77.6287 25.8343 79.2972 27.5028C80.9657 29.1713 81.8 31.1847 81.8 33.5429Z" fill="#004C92"/>
</g>
<defs>
<clipPath id="clip0">
<rect width="64.0714" height="59.8" fill="white" transform="translate(22 25)"/>
</clipPath>
</defs>
</svg>
