<svg width="34" height="29" viewBox="0 0 34 29" fill="none" xmlns="http://www.w3.org/2000/svg">
<g clip-path="url(#clip0)">
<path d="M19.2914 15C20.6173 15.0409 21.7017 15.5647 22.5447 16.5714H24.1898C24.861 16.5714 25.4257 16.4057 25.884 16.0742C26.3424 15.7427 26.5715 15.2578 26.5715 14.6194C26.5715 11.7303 26.0641 10.2857 25.0492 10.2857C25.0001 10.2857 24.8221 10.3717 24.5152 10.5435C24.2083 10.7154 23.8093 10.8893 23.3182 11.0653C22.8271 11.2413 22.3401 11.3292 21.8572 11.3292C21.3089 11.3292 20.7646 11.2351 20.2244 11.0469C20.2654 11.3497 20.2858 11.6198 20.2858 11.8571C20.2858 12.9948 19.9543 14.0424 19.2914 15ZM6.14296 22.8203C6.14296 23.8025 6.4417 24.5779 7.03917 25.1468C7.63664 25.7156 8.43054 26 9.42087 26H20.1508C21.1411 26 21.935 25.7156 22.5325 25.1468C23.1299 24.5779 23.4287 23.8025 23.4287 22.8203C23.4287 22.3865 23.4144 21.963 23.3857 21.5497C23.3571 21.1363 23.2998 20.6903 23.2138 20.2115C23.1279 19.7327 23.0195 19.2887 22.8885 18.8795C22.7575 18.4702 22.5816 18.0712 22.3606 17.6825C22.1396 17.2937 21.8859 16.9622 21.5994 16.6881C21.313 16.4139 20.9631 16.1949 20.5498 16.0312C20.1365 15.8676 19.6802 15.7857 19.1809 15.7857C19.0991 15.7857 18.9231 15.8737 18.653 16.0497C18.3829 16.2256 18.0842 16.4221 17.7568 16.639C17.4294 16.8558 16.9915 17.0523 16.4432 17.2282C15.8948 17.4042 15.3424 17.4922 14.7858 17.4922C14.2293 17.4922 13.6768 17.4042 13.1285 17.2282C12.5801 17.0523 12.1422 16.8558 11.8148 16.639C11.4875 16.4221 11.1887 16.2256 10.9186 16.0497C10.6485 15.8737 10.4726 15.7857 10.3907 15.7857C9.89148 15.7857 9.43519 15.8676 9.02187 16.0312C8.60855 16.1949 8.25866 16.4139 7.9722 16.6881C7.68575 16.9622 7.43203 17.2937 7.21104 17.6825C6.99006 18.0712 6.81409 18.4702 6.68314 18.8795C6.55219 19.2887 6.44374 19.7327 6.35781 20.2115C6.27187 20.6903 6.21458 21.1363 6.18593 21.5497C6.15729 21.963 6.14296 22.3865 6.14296 22.8203ZM18.7144 7.14286C18.7144 8.01042 19.0213 8.75112 19.6351 9.36496C20.249 9.97879 20.9897 10.2857 21.8572 10.2857C22.7248 10.2857 23.4655 9.97879 24.0793 9.36496C24.6932 8.75112 25.0001 8.01042 25.0001 7.14286C25.0001 6.2753 24.6932 5.5346 24.0793 4.92076C23.4655 4.30692 22.7248 4 21.8572 4C20.9897 4 20.249 4.30692 19.6351 4.92076C19.0213 5.5346 18.7144 6.2753 18.7144 7.14286ZM10.0715 11.8571C10.0715 13.1585 10.5319 14.2695 11.4527 15.1903C12.3734 16.111 13.4845 16.5714 14.7858 16.5714C16.0872 16.5714 17.1982 16.111 18.119 15.1903C19.0397 14.2695 19.5001 13.1585 19.5001 11.8571C19.5001 10.5558 19.0397 9.44475 18.119 8.524C17.1982 7.60324 16.0872 7.14286 14.7858 7.14286C13.4845 7.14286 12.3734 7.60324 11.4527 8.524C10.5319 9.44475 10.0715 10.5558 10.0715 11.8571ZM3.00011 14.6194C3.00011 15.2578 3.22927 15.7427 3.68761 16.0742C4.14594 16.4057 4.71067 16.5714 5.3818 16.5714H7.02689C7.8699 15.5647 8.95435 15.0409 10.2802 15C9.61729 14.0424 9.28582 12.9948 9.28582 11.8571C9.28582 11.6198 9.30628 11.3497 9.3472 11.0469C8.80703 11.2351 8.26276 11.3292 7.71439 11.3292C7.23151 11.3292 6.74453 11.2413 6.25345 11.0653C5.76238 10.8893 5.36339 10.7154 5.05647 10.5435C4.74955 10.3717 4.57154 10.2857 4.52243 10.2857C3.50755 10.2857 3.00011 11.7303 3.00011 14.6194ZM4.57154 7.14286C4.57154 8.01042 4.87845 8.75112 5.49229 9.36496C6.10613 9.97879 6.84683 10.2857 7.71439 10.2857C8.58195 10.2857 9.32265 9.97879 9.93649 9.36496C10.5503 8.75112 10.8572 8.01042 10.8572 7.14286C10.8572 6.2753 10.5503 5.5346 9.93649 4.92076C9.32265 4.30692 8.58195 4 7.71439 4C6.84683 4 6.10613 4.30692 5.49229 4.92076C4.87845 5.5346 4.57154 6.2753 4.57154 7.14286Z" fill="white"/>
</g>
<defs>
<clipPath id="clip0">
<rect width="23.5714" height="22" fill="white" transform="matrix(-1 0 0 1 26.5715 4)"/>
</clipPath>
</defs>
</svg>
